PathFileType	4	(X/Y/Z)	F:\MotionCapture\20160217\3\Generated_files\EMG_test06-Dynamic.trc
DataRate	CameraRate	NumFrames	NumMarkers	Units	OrigDataRate	OrigDataStartFrame	OrigNumFrames
120.00	120.00	        4	39	mm	120.00	50	        99
Frame#	Time	Top.Head			Front.Head			Rear.Head			R.Shoulder			R.Offset			R.Elbow			R.Wrist			L.Shoulder			L.Elbow			L.Wrist			R.ASIS			L.ASIS			V.Sacral			R.Thigh			R.Knee			R.Shank			R.Ankle			R.Heel			R.Toe			L.Thigh			L.Knee			L.Shank			L.Ankle			L.Heel			L.Toe			R1			R2			R3			R4			R5			R6			R7			L1			L2			L3			L4			L5			L6			L7			V_Mid_ASIS			V_Pelvis_Origin			V_R.Hip_JC			V_L.Hip_JC			V_R.Knee_JC			V_L.Knee_JC			V_R.Ankle_JC			V_L.Ankle_JC			V_Mid_Hip			V_Mid_Shoulder			V_R.Hand			V_L.Hand			V_R.Toe_Offset_Static			V_L.Toe_Offset_Static			V_R.Toe_Offset			V_L.Toe_Offset			
		X1	Y1	Z1	X2	Y2	Z2	X3	Y3	Z3	X4	Y4	Z4	X5	Y5	Z5	X6	Y6	Z6	X7	Y7	Z7	X8	Y8	Z8	X9	Y9	Z9	X10	Y10	Z10	X11	Y11	Z11	X12	Y12	Z12	X13	Y13	Z13	X14	Y14	Z14	X15	Y15	Z15	X16	Y16	Z16	X17	Y17	Z17	X18	Y18	Z18	X19	Y19	Z19	X20	Y20	Z20	X21	Y21	Z21	X22	Y22	Z22	X23	Y23	Z23	X24	Y24	Z24	X25	Y25	Z25	X26	Y26	Z26	X27	Y27	Z27	X28	Y28	Z28	X29	Y29	Z29	X30	Y30	Z30	X31	Y31	Z31	X32	Y32	Z32	X33	Y33	Z33	X34	Y34	Z34	X35	Y35	Z35	X36	Y36	Z36	X37	Y37	Z37	X38	Y38	Z38	X39	Y39	Z39	

50	0.408	2363.70361	30.81216	1717.12549	2276.25757	33.39929	1607.93274	2485.12598	17.59756	1677.21716	2471.57251	214.13618	1444.01709	2628.69336	-34.10720	1290.17493	2491.70288	323.64984	1119.66443	2347.56030	326.81665	900.20599	2481.99463	-192.69876	1425.58826	2548.45020	-278.78558	1107.54102	2504.41577	-297.26346	855.34698	2430.00537	182.10342	954.58020	2430.28296	-108.60430	949.84424	2654.85376	35.45908	961.30945	2386.32690	183.77831	585.26971	2450.46338	231.97800	482.36633	2454.63086	186.89502	241.52716	2515.21997	268.44659	82.51272	2579.36938	206.89488	49.52444	2369.73267	259.66544	48.82697	2390.89893	-49.75315	631.31903	2483.62964	-90.19383	470.74252	2467.99707	-7.28023	335.46793	2535.68896	-51.93619	65.17062	2597.39429	6.92678	49.18586	2394.27075	-53.56914	47.06081	2320.44971	241.80043	43.70346	2364.14038	225.19649	56.73613	2459.55054	185.20842	64.90413	2531.92285	179.39282	47.64539	2552.57178	252.40999	52.26392	2476.27930	283.32697	42.59395	2408.56470	300.91525	43.60762	2347.18481	-29.72143	40.68887	2381.35400	-14.89292	51.00907	2473.74292	32.80097	55.18593	2557.46655	36.85242	50.94645	2573.63184	-34.49756	47.85109	2500.90674	-65.66119	40.44086	2437.31274	-84.21426	44.04668																																																	1663.83984	-19.71879	1509.13794	2703.00732	55.10449	280.77069	3130.30933	133.22852	-167.28470	
51	0.417	2363.88330	30.15107	1717.01514	2276.26978	32.92962	1607.75330	2485.41797	16.82774	1677.18713	2471.38892	213.09416	1444.21118	2628.98340	-34.72490	1290.03406	2489.20117	323.09128	1119.60620	2341.45508	324.57394	902.61017	2481.71924	-193.82123	1425.11743	2548.15869	-278.59583	1106.69116	2501.83716	-296.28522	854.79669	2429.93140	181.41998	954.36285	2430.68970	-109.20581	949.77942	2654.94312	35.12652	961.25519	2385.29980	184.04741	585.15753	2449.48584	232.13113	482.27493	2454.83569	186.98479	241.60109	2515.62354	268.34821	82.78555	2579.53491	206.70036	49.46598	2370.42432	259.92798	49.48082	2391.84766	-50.11958	631.46503	2484.09570	-90.76037	470.84085	2468.14380	-7.47036	335.43518	2535.70703	-51.93340	65.16108	2597.36816	6.91856	49.10963	2394.21436	-53.52011	47.00605	2321.05420	243.18810	43.85758	2364.26782	226.02808	57.43041	2459.96338	185.35899	65.20520	2532.06348	179.20833	47.76189	2552.83984	252.24976	52.31982	2476.09814	283.08936	42.53976	2408.47412	299.92020	43.54800	2347.17798	-29.71636	40.73993	2381.34912	-14.86104	50.99794	2473.69897	32.77870	55.16522	2557.49829	36.91335	50.95176	2573.63965	-34.46891	47.76421	2500.90723	-65.73204	40.49468	2437.26440	-84.21538	43.98658																																																	2703.13110	55.11906	280.64694	1664.05823	-21.11821	1509.02429	2312.24438	-189.17966	811.55774	
52	0.425	2364.21069	29.48593	1717.09900	2275.77271	31.16381	1607.61963	2485.73145	16.17554	1677.22961	2471.74707	212.26030	1444.46252	2629.06567	-35.12793	1289.82031	2486.72705	322.06924	1119.26550	2335.85400	322.45602	904.25824	2482.81592	-193.98958	1424.87903	2548.07715	-278.77332	1106.32764	2500.16016	-295.88693	854.59888	2429.94385	180.88339	953.92297	2431.42285	-110.18050	949.83893	2655.10718	34.64415	961.09186	2384.14771	184.30865	585.03693	2447.96729	232.49881	481.89777	2454.93457	186.99969	241.45486	2516.38281	268.46982	83.11559	2579.74341	206.48962	49.34518	2371.06226	260.54150	50.71409	2391.93018	-50.52770	631.02826	2484.10229	-90.78104	470.78854	2468.52002	-7.55982	335.48431	2535.69116	-51.90514	65.03103	2597.38086	6.91470	49.08573	2394.20020	-53.38797	47.01643	2321.57910	243.85866	44.04947	2364.31055	226.40352	58.29015	2460.33228	185.59016	65.62125	2532.38330	178.88554	48.00955	2552.91479	251.81078	52.24631	2476.21484	283.16098	42.84106	2408.79883	298.94855	43.92172	2347.20483	-29.71088	40.71806	2381.35840	-15.00250	51.00586	2473.68359	32.79454	55.10994	2557.46851	36.87732	50.94542	2573.67505	-34.53693	47.75660	2500.89673	-65.73323	40.55238	2437.27588	-84.29554	43.88111																																																	1664.45679	-21.64597	1509.02319	3067.46240	164.41138	-145.61276	
53	0.433	2364.32715	29.13121	1717.15063	2276.98975	30.83718	1607.73645	2485.99829	15.54914	1677.32666	2471.79858	211.87828	1444.51978	2629.37476	-35.47533	1289.64478	2484.07544	320.75455	1119.33264	2330.30176	319.97110	906.68585	2483.28174	-194.59682	1424.71216	2547.60889	-278.49908	1104.99512	2497.07275	-293.92825	853.84021	2429.38159	180.28040	953.91376	2431.88159	-110.94120	949.68280	2655.25562	34.30878	960.86090	2382.89624	184.35251	584.81409	2446.17041	232.62164	481.86969	2454.74805	187.06427	241.39365	2516.35938	268.08896	82.97424	2580.11841	206.17070	49.16049	2371.91113	260.87598	53.03741	2391.89771	-50.81578	631.02246	2484.23926	-91.09187	470.67636	2468.82446	-7.90200	335.36606	2535.76953	-51.95976	65.03577	2597.43091	6.85989	49.06849	2394.25708	-53.53416	47.02967	2321.73047	244.61118	44.71088	2364.55200	226.56223	59.14928	2460.43384	185.61855	65.99538	2532.61475	178.63539	48.08386	2553.31836	251.61258	52.30999	2476.44653	283.33923	43.20523	2409.47583	297.99591	44.43218	2347.16479	-29.73500	40.66796	2381.65601	-15.08648	51.03022	2473.59277	32.78249	55.10853	2557.51807	36.83590	50.96805	2573.70166	-34.47836	47.69611	2500.94116	-65.77554	40.54948	2437.30029	-84.32073	43.85995																																																	3065.33057	164.52115	-143.91982	1663.86023	-22.60964	1508.92969	3133.48242	134.15955	-167.54402	
